<svg width="22" height="20" viewBox="0 0 22 20" fill="none" xmlns="http://www.w3.org/2000/svg">
<path fill-rule="evenodd" clip-rule="evenodd" d="M10.9998 0.249878C13.7959 0.249878 16.2594 2.04929 17.1477 4.63196C19.7899 4.99055 21.8331 7.26121 21.8331 9.99988C21.8331 11.3226 21.3521 12.5955 20.4789 13.5846C20.2644 13.8262 19.9665 13.9508 19.6664 13.9508C19.4119 13.9508 19.1562 13.862 18.9493 13.68C18.5019 13.2824 18.4585 12.5988 18.855 12.1492C19.3783 11.5577 19.6664 10.7929 19.6664 9.99988C19.6664 8.20805 18.2083 6.74988 16.4164 6.74988H16.3081C15.7924 6.74988 15.3483 6.38588 15.2464 5.87996C14.8413 3.87363 13.0559 2.41654 10.9998 2.41654C8.94469 2.41654 7.15828 3.87363 6.75419 5.87996C6.65236 6.38588 6.20711 6.74988 5.69144 6.74988H5.58311C3.79128 6.74988 2.33311 8.20805 2.33311 9.99988C2.33311 10.7929 2.62128 11.5577 3.14561 12.1492C3.54103 12.5988 3.49878 13.2824 3.05028 13.68C2.60069 14.0765 1.91711 14.032 1.52169 13.5846C0.647443 12.5955 0.166443 11.3226 0.166443 9.99988C0.166443 7.26121 2.20961 4.99055 4.85186 4.63196C5.74128 2.04929 8.20478 0.249878 10.9998 0.249878ZM12.0835 16.1141L13.4973 14.7491C13.9285 14.3342 14.6142 14.3461 15.0291 14.7762C15.4451 15.2074 15.4332 15.8931 15.0031 16.308L11.7531 19.4464C11.5419 19.6479 11.271 19.7498 11.0002 19.7498C10.7229 19.7498 10.4455 19.6447 10.2343 19.4324L6.98429 16.1824C6.56071 15.7599 6.56071 15.0741 6.98429 14.6505C7.40679 14.228 8.09254 14.228 8.51612 14.6505L9.91687 16.0513V9.99977C9.91687 9.40069 10.4022 8.91644 11.0002 8.91644C11.5982 8.91644 12.0835 9.40069 12.0835 9.99977V16.1141Z" fill="black"/>
</svg>
