<svg width="36" height="36" viewBox="0 0 36 36" fill="none" xmlns="http://www.w3.org/2000/svg">
<path fill-rule="evenodd" clip-rule="evenodd" d="M15.2435 11.1819C16.3656 12.3021 16.3656 14.1232 15.2435 15.2434C14.1214 16.3655 12.3042 16.3655 11.182 15.2434C10.0599 14.1232 10.0599 12.3021 11.182 11.1819C12.3042 10.0598 14.1214 10.0598 15.2435 11.1819M6.19277 19.7072L17.7434 31.2598L31.2587 17.7444L19.7081 6.19189L4.80064 4.80168L6.19277 19.7072ZM17.7434 35.2313C16.853 35.2313 15.9645 34.8923 15.2847 34.2164L2.9968 21.9266C2.68084 21.6125 2.48553 21.1951 2.4434 20.7508L0.773611 2.85806C0.721909 2.29125 0.922972 1.73019 1.32701 1.32615C1.73106 0.922103 2.29021 0.717209 2.85893 0.774656L20.7517 2.44444C21.196 2.48466 21.6115 2.67998 21.9274 2.99593L34.2153 15.2838C34.8721 15.9406 35.234 16.8138 35.234 17.7444C35.234 18.6751 34.8721 19.5483 34.2153 20.2051L20.204 34.2144C19.5262 34.8923 18.6357 35.2313 17.7434 35.2313V35.2313Z" fill="#FFB200"/>
</svg>
