<svg width="36" height="36" viewBox="0 0 36 36" fill="none" xmlns="http://www.w3.org/2000/svg">
<path fill-rule="evenodd" clip-rule="evenodd" d="M31.4042 29.4893C31.4042 30.5444 30.5463 31.4042 29.4893 31.4042H25.6595V25.6595C25.6595 24.6025 24.8035 23.7446 23.7446 23.7446H12.2552C11.1963 23.7446 10.3403 24.6025 10.3403 25.6595V31.4042H6.51055C5.45353 31.4042 4.59566 30.5444 4.59566 29.4893V6.51055C4.59566 5.45544 5.45353 4.59566 6.51055 4.59566H10.3403V14.1701C10.3403 15.2271 11.1963 16.085 12.2552 16.085H19.9148C20.9737 16.085 21.8297 15.2271 21.8297 14.1701C21.8297 13.1131 20.9737 12.2552 19.9148 12.2552H14.1701V4.59566H20.2442C20.7478 4.59566 21.2399 4.80055 21.598 5.15672L30.8431 14.4018C31.205 14.7637 31.4042 15.2463 31.4042 15.7576V29.4893ZM14.1701 31.4042H21.8297V27.5744H14.1701V31.4042ZM33.5508 11.6942L24.3057 2.44906C23.2218 1.36332 21.778 0.765869 20.2442 0.765869H6.51055C3.34332 0.765869 0.765869 3.34332 0.765869 6.51055V29.4893C0.765869 32.6565 3.34332 35.234 6.51055 35.234H12.2552H23.7446H29.4893C32.6565 35.234 35.234 32.6565 35.234 29.4893V15.7576C35.234 14.2218 34.6346 12.778 33.5508 11.6942V11.6942Z" fill={color.primary.main}/>
</svg>
