<svg width="30" height="36" viewBox="0 0 30 36" fill="none" xmlns="http://www.w3.org/2000/svg">
<path fill-rule="evenodd" clip-rule="evenodd" d="M7.37362 13.2444C3.48256 17.4552 3.5649 24.1305 7.62065 28.2648C9.60065 30.2888 12.2317 31.4052 15.0351 31.4071H15.0447C17.8538 31.4071 20.4945 30.2908 22.484 28.2648C26.6126 24.0559 26.6049 17.2101 22.4668 13.0069L16.7489 7.16459C16.1706 11.9174 14.3879 16.088 11.213 16.088C10.2402 16.088 8.65469 15.6552 7.37362 13.2444V13.2444ZM15.0447 35.2369H15.0313C11.19 35.2331 7.58616 33.7108 4.88425 30.9437C-0.695754 25.2565 -0.703414 16.0018 4.86701 10.3242L6.74935 8.42076C7.23574 7.93437 7.94233 7.74671 8.61063 7.92097C9.2751 8.10097 9.79212 8.62374 9.96446 9.29012C10.4049 10.9925 10.9296 11.8293 11.2187 12.1471C11.8985 11.431 13.1279 8.53756 13.1279 3.64118C13.1279 3.35969 13.1279 3.09352 13.1125 2.82735C13.0762 2.26246 13.2925 1.70905 13.7023 1.31842C14.4625 0.596501 15.6804 0.596501 16.41 1.34714L25.1994 10.3261C30.7908 16.0018 30.8004 25.2565 25.2185 30.9456C22.5013 33.7146 18.8898 35.2369 15.0447 35.2369V35.2369Z" fill="#34B53A"/>
</svg>
