<svg width="36" height="36" viewBox="0 0 36 36" fill="none" xmlns="http://www.w3.org/2000/svg">
<path fill-rule="evenodd" clip-rule="evenodd" d="M19.9148 31.4042H28.5318V23.7446H19.9148V31.4042ZM7.468 31.4042H16.085V23.7446H7.468V31.4042ZM4.59566 12.6382C4.59566 12.4793 4.62055 12.351 4.64544 12.2552H10.6142H16.085V19.9148H4.64544C4.62055 19.8191 4.59566 19.6908 4.59566 19.5318V12.6382ZM8.42544 6.51055C8.42544 5.45353 9.40778 4.59566 10.6142 4.59566C13.0212 4.59566 14.4957 6.68289 15.3076 8.42544H10.6142C9.40778 8.42544 8.42544 7.56757 8.42544 6.51055V6.51055ZM25.3857 4.59566C26.5921 4.59566 27.5744 5.45353 27.5744 6.51055C27.5744 7.56757 26.5921 8.42544 25.3857 8.42544H20.6808C21.485 6.68289 22.9557 4.59566 25.3857 4.59566V4.59566ZM31.4042 12.6382V19.5318C31.4042 19.6908 31.3793 19.8191 31.3544 19.9148H19.9148V12.2552H25.3857H31.3544C31.3793 12.351 31.4042 12.4793 31.4042 12.6382V12.6382ZM31.7871 8.42544H31.0346C31.2605 7.82417 31.4042 7.18651 31.4042 6.51055C31.4042 3.34332 28.7042 0.765869 25.3857 0.765869C21.7052 0.765869 19.3959 3.06183 17.9999 5.35587C16.604 3.06183 14.2946 0.765869 10.6142 0.765869C7.29566 0.765869 4.59566 3.34332 4.59566 6.51055C4.59566 7.18651 4.74119 7.82417 4.96523 8.42544H4.21268C2.28055 8.42544 0.765869 10.2771 0.765869 12.6382V19.5318C0.765869 21.6516 1.9914 23.3482 3.63821 23.6757V32.0418C3.63821 33.8016 5.19502 35.234 7.108 35.234H28.8899C30.8048 35.234 32.3616 33.8016 32.3616 32.0418V23.6757C34.0084 23.3482 35.234 21.6516 35.234 19.5318V12.6382C35.234 10.2771 33.7193 8.42544 31.7871 8.42544V8.42544Z" fill={color.info.main}/>
</svg>
