<svg width="40" height="40" viewBox="0 0 40 40" fill="none" xmlns="http://www.w3.org/2000/svg">
<path fill-rule="evenodd" clip-rule="evenodd" d="M33.726 9.40441L30.9724 12.0661C30.6009 12.4242 30.1202 12.6042 29.6415 12.6042C29.1398 12.6042 28.64 12.407 28.2647 12.0182C27.5313 11.2599 27.5504 10.0459 28.3126 9.3125L31.0662 6.65271C31.8264 5.91931 33.0443 5.93846 33.7719 6.69867C34.5073 7.45697 34.4862 8.67101 33.726 9.40441M11.7353 12.0182C11.36 12.407 10.8602 12.6042 10.3585 12.6042C9.87979 12.6042 9.39915 12.4261 9.02766 12.068L6.27213 9.40633C5.51192 8.67101 5.49085 7.45697 6.22617 6.69867C6.96149 5.93846 8.17171 5.91548 8.93383 6.6508L11.6894 9.31058C12.4496 10.0459 12.4706 11.2599 11.7353 12.0182M8.51065 19.9995C8.51065 21.0585 7.65278 21.9144 6.59576 21.9144H2.76597C1.70895 21.9144 0.851074 21.0585 0.851074 19.9995C0.851074 18.9406 1.70895 18.0846 2.76597 18.0846H6.59576C7.65278 18.0846 8.51065 18.9406 8.51065 19.9995M39.1489 19.9995C39.1489 21.0585 38.293 21.9144 37.2341 21.9144H33.4043C32.3453 21.9144 31.4894 21.0585 31.4894 19.9995C31.4894 18.9406 32.3453 18.0846 33.4043 18.0846H37.2341C38.293 18.0846 39.1489 18.9406 39.1489 19.9995M18.0851 6.59527V2.76548C18.0851 1.70654 18.943 0.850586 20 0.850586C21.057 0.850586 21.9149 1.70654 21.9149 2.76548V6.59527C21.9149 7.6542 21.057 8.51016 20 8.51016C18.943 8.51016 18.0851 7.6542 18.0851 6.59527M22.8743 24.9648C22.2806 25.3076 21.9149 25.9414 21.9149 26.6251V35.3187H18.0851V26.6251C18.0851 25.9414 17.7194 25.3076 17.1258 24.9648C15.3545 23.948 14.2553 22.0446 14.2553 19.9995C14.2553 16.8323 16.8328 14.2548 20 14.2548C23.1672 14.2548 25.7447 16.8323 25.7447 19.9995C25.7447 22.0446 24.6455 23.948 22.8743 24.9648M20 10.4251C14.7206 10.4251 10.4255 14.7202 10.4255 19.9995C10.4255 23.0231 11.8675 25.8629 14.2553 27.6514V35.3187C14.2553 37.4308 15.973 39.1485 18.0851 39.1485H21.9149C24.027 39.1485 25.7447 37.4308 25.7447 35.3187V27.6514C28.1306 25.8629 29.5745 23.0231 29.5745 19.9995C29.5745 14.7202 25.2794 10.4251 20 10.4251" fill="#FF3A29"/>
</svg>
