<svg width="20" height="22" viewBox="0 0 20 22" fill="none" xmlns="http://www.w3.org/2000/svg">
<path fill-rule="evenodd" clip-rule="evenodd" d="M4.58333 15.3334C4.58333 14.7375 5.07083 14.25 5.66667 14.25C6.2625 14.25 6.75 14.7375 6.75 15.3334C6.75 15.9292 6.2625 16.4167 5.66667 16.4167C5.07083 16.4167 4.58333 15.9292 4.58333 15.3334ZM10 14.25H14.3333C14.9292 14.25 15.4167 14.7375 15.4167 15.3334C15.4167 15.9292 14.9292 16.4167 14.3333 16.4167H10C9.40417 16.4167 8.91667 15.9292 8.91667 15.3334C8.91667 14.7375 9.40417 14.25 10 14.25ZM16.5 19.6667H3.5C2.90308 19.6667 2.41667 19.1803 2.41667 18.5834V12.0834H17.5833V18.5834C17.5833 19.1803 17.0969 19.6667 16.5 19.6667ZM3.5 4.50002H4.58333V5.58335C4.58333 6.17919 5.07083 6.66669 5.66667 6.66669C6.2625 6.66669 6.75 6.17919 6.75 5.58335V4.50002H13.25V5.58335C13.25 6.17919 13.7375 6.66669 14.3333 6.66669C14.9292 6.66669 15.4167 6.17919 15.4167 5.58335V4.50002H16.5C17.0969 4.50002 17.5833 4.98644 17.5833 5.58335V9.91669H2.41667V5.58335C2.41667 4.98644 2.90308 4.50002 3.5 4.50002ZM16.5 2.33335H15.4167V1.25002C15.4167 0.654187 14.9292 0.166687 14.3333 0.166687C13.7375 0.166687 13.25 0.654187 13.25 1.25002V2.33335H6.75V1.25002C6.75 0.654187 6.2625 0.166687 5.66667 0.166687C5.07083 0.166687 4.58333 0.654187 4.58333 1.25002V2.33335H3.5C1.70817 2.33335 0.25 3.79152 0.25 5.58335V18.5834C0.25 20.3752 1.70817 21.8334 3.5 21.8334H16.5C18.2918 21.8334 19.75 20.3752 19.75 18.5834V5.58335C19.75 3.79152 18.2918 2.33335 16.5 2.33335Z" fill="black"/>
</svg>
