<svg width="17" height="20" viewBox="0 0 17 20" fill="none" xmlns="http://www.w3.org/2000/svg">
<path fill-rule="evenodd" clip-rule="evenodd" d="M4.11969 7.30955C1.91835 9.6918 1.96494 13.4683 4.25944 15.8072C5.3796 16.9523 6.8681 17.5839 8.4541 17.585H8.45952C10.0488 17.585 11.5427 16.9534 12.6683 15.8072C15.0039 13.4261 14.9996 9.55313 12.6585 7.17522L9.42369 3.86997C9.09652 6.5588 8.08794 8.9183 6.29177 8.9183C5.74144 8.9183 4.84444 8.67347 4.11969 7.30955ZM8.45952 19.7516H8.45194C6.27877 19.7495 4.23994 18.8882 2.71135 17.3228C-0.44548 14.1053 -0.449814 8.86955 2.7016 5.65747L3.76652 4.58063C4.04169 4.30547 4.44144 4.1993 4.81952 4.29788C5.19544 4.39972 5.48794 4.69547 5.58544 5.07247C5.8346 6.03555 6.13144 6.50897 6.29502 6.6888C6.6796 6.28363 7.3751 4.64672 7.3751 1.87663C7.3751 1.71738 7.3751 1.5668 7.36644 1.41622C7.34585 1.09663 7.46827 0.783551 7.7001 0.562551C8.13019 0.154134 8.81919 0.154134 9.23194 0.578801L14.2044 5.65855C17.3678 8.86955 17.3732 14.1053 14.2153 17.3239C12.678 18.8904 10.6349 19.7516 8.45952 19.7516Z" fill="black"/>
</svg>
