<svg width="22" height="22" viewBox="0 0 22 22" fill="none" xmlns="http://www.w3.org/2000/svg">
<path fill-rule="evenodd" clip-rule="evenodd" d="M20.5564 13.2291C19.9898 13.0276 19.3723 13.3233 19.1741 13.8888C17.9521 17.3447 14.6663 19.6663 11.0003 19.6663C6.22174 19.6663 2.33366 15.7793 2.33366 10.9996C2.33366 7.33359 4.65524 4.04784 8.11107 2.82584C8.67549 2.62759 8.97124 2.009 8.77191 1.44459C8.57257 0.881254 7.95399 0.584421 7.38958 0.784837C3.06924 2.31125 0.166992 6.416 0.166992 10.9996C0.166992 16.9731 5.02683 21.8329 11.0003 21.8329C15.5839 21.8329 19.6887 18.9318 21.2162 14.6103C21.4155 14.047 21.1208 13.4284 20.5564 13.2291ZM13.1667 8.83335V2.41027C16.4827 2.88694 19.1131 5.51619 19.5897 8.83335H13.1667ZM12.0833 0.166687C11.4853 0.166687 11 0.650937 11 1.25002V9.91669C11 10.5158 11.4853 11 12.0833 11H20.75C21.348 11 21.8333 10.5158 21.8333 9.91669C21.8333 4.5401 17.4588 0.166687 12.0833 0.166687Z" fill="black"/>
</svg>
