<svg width="22" height="22" viewBox="0 0 22 22" fill="none" xmlns="http://www.w3.org/2000/svg">
<path fill-rule="evenodd" clip-rule="evenodd" d="M2.76969 10.5906C3.97869 11.0055 4.94178 12.0173 5.34478 13.3L5.38811 13.43C5.84961 14.7907 5.66219 16.2553 4.88869 17.3538C4.74786 17.5532 4.77928 17.7915 4.92769 17.9042L7.17236 19.6093C7.25144 19.6689 7.32836 19.6689 7.37603 19.6635C7.43019 19.6548 7.50928 19.6256 7.57319 19.5346L7.82344 19.1792C8.56986 18.1208 9.77236 17.4676 11.042 17.4307C12.4677 17.4015 13.7482 18.0547 14.5455 19.2063L14.6734 19.3916C14.7373 19.4826 14.8153 19.5129 14.8705 19.5216C14.9182 19.5313 14.9962 19.5281 15.0742 19.4674L17.3069 17.7828C17.4629 17.6658 17.4976 17.4156 17.3817 17.2477L17.1 16.8414C16.3742 15.7927 16.1586 14.4321 16.5237 13.2025C16.9202 11.8635 17.9288 10.804 19.2234 10.3707L19.4411 10.297C19.6155 10.2396 19.7098 10.0229 19.648 9.82358L18.7954 7.0925C18.7554 6.96466 18.673 6.90725 18.6275 6.88341C18.5625 6.84983 18.4921 6.84441 18.4249 6.86716L18.0566 6.98958C16.7967 7.40883 15.4068 7.18133 14.3397 6.37858L14.2227 6.29083C13.2087 5.52816 12.6053 4.29858 12.6096 3.00291L12.6118 2.69958C12.6118 2.5555 12.5435 2.46558 12.5024 2.42441C12.4634 2.38433 12.3973 2.33666 12.3041 2.33666L9.54486 2.33341C9.37586 2.33341 9.23828 2.49483 9.23719 2.69416L9.23611 2.95633C9.23069 4.27258 8.61428 5.52491 7.58728 6.30816L7.44753 6.41433C6.31761 7.27341 4.84428 7.51608 3.50961 7.06108C3.45869 7.04375 3.41103 7.047 3.36553 7.07083C3.33086 7.08816 3.26803 7.13258 3.23769 7.23116L2.35261 10.0435C2.28869 10.2482 2.39378 10.4617 2.59203 10.5299L2.76969 10.5906ZM7.33161 21.8334C6.80511 21.8334 6.29378 21.6622 5.86261 21.334L3.61794 19.6299C2.54544 18.8174 2.30819 17.2542 3.08819 16.1459C3.49336 15.5717 3.57678 14.834 3.33844 14.1342L3.27886 13.9522C3.08061 13.3217 2.62778 12.832 2.06769 12.6402H2.06661L1.89003 12.5785C0.570526 12.1267 -0.133641 10.7282 0.285609 9.3935L1.16961 6.58225C1.37003 5.94633 1.80228 5.43283 2.38728 5.13708C2.95928 4.84891 3.60603 4.8045 4.21053 5.01141C4.85944 5.23241 5.57986 5.11216 6.13561 4.68966L6.27536 4.5835C6.76936 4.2065 7.06728 3.59441 7.06944 2.94766L7.07053 2.68658C7.07594 1.29558 8.18636 0.166748 9.54377 0.166748H9.54811L12.3074 0.169998C12.9595 0.171081 13.5749 0.428915 14.0385 0.895831C14.5184 1.37791 14.7806 2.0225 14.7784 2.71041L14.7763 3.01266C14.7741 3.62583 15.0547 4.20541 15.5281 4.56075L15.644 4.6485C16.1413 5.02225 16.7891 5.1295 17.3709 4.9345L17.7381 4.81208C18.3632 4.60408 19.0284 4.655 19.6144 4.95508C20.2157 5.26275 20.6599 5.7925 20.8635 6.44791L21.7161 9.179C22.1278 10.4985 21.4149 11.922 20.129 12.3521L19.9113 12.4247C19.2873 12.6348 18.7965 13.1548 18.6004 13.8178C18.4206 14.4256 18.5246 15.094 18.881 15.6075L19.1627 16.0137C19.9362 17.1317 19.6892 18.7004 18.6124 19.5118L16.3796 21.1975C15.8434 21.6027 15.1858 21.7662 14.526 21.6612C13.8609 21.5539 13.2802 21.1856 12.8913 20.6244L12.7634 20.4381C12.3843 19.8921 11.7776 19.5606 11.1417 19.5963C10.5047 19.6137 9.95436 19.9159 9.59469 20.4272L9.34444 20.7826C8.95227 21.3383 8.37052 21.7012 7.70861 21.8052C7.58186 21.8247 7.45619 21.8334 7.33161 21.8334ZM11 9.37497C10.1041 9.37497 9.37499 10.1041 9.37499 11C9.37499 11.8959 10.1041 12.625 11 12.625C11.8959 12.625 12.625 11.8959 12.625 11C12.625 10.1041 11.8959 9.37497 11 9.37497ZM11 14.7916C8.90916 14.7916 7.20832 13.0908 7.20832 11C7.20832 8.90914 8.90916 7.20831 11 7.20831C13.0908 7.20831 14.7917 8.90914 14.7917 11C14.7917 13.0908 13.0908 14.7916 11 14.7916Z" fill="black"/>
</svg>
